<svg width="190" height="28" viewBox="0 0 190 28" fill="none" xmlns="http://www.w3.org/2000/svg">
<path d="M3.02 11.05C3.76 11.05 4.40667 11.1933 4.96 11.48C5.52 11.76 5.95 12.1667 6.25 12.7C6.55667 13.2267 6.71 13.8433 6.71 14.55C6.71 15.2567 6.55667 15.87 6.25 16.39C5.95 16.91 5.52 17.31 4.96 17.59C4.40667 17.8633 3.76 18 3.02 18H0.75V11.05H3.02ZM3.02 17.07C3.83333 17.07 4.45667 16.85 4.89 16.41C5.32333 15.97 5.54 15.35 5.54 14.55C5.54 13.7433 5.32333 13.1133 4.89 12.66C4.45667 12.2067 3.83333 11.98 3.02 11.98H1.89V17.07H3.02ZM11.0098 18.07C10.3632 18.07 9.76651 17.92 9.21984 17.62C8.67984 17.3133 8.24984 16.89 7.92984 16.35C7.61651 15.8033 7.45984 15.19 7.45984 14.51C7.45984 13.83 7.61651 13.22 7.92984 12.68C8.24984 12.14 8.67984 11.72 9.21984 11.42C9.76651 11.1133 10.3632 10.96 11.0098 10.96C11.6632 10.96 12.2598 11.1133 12.7998 11.42C13.3465 11.72 13.7765 12.14 14.0898 12.68C14.4032 13.22 14.5598 13.83 14.5598 14.51C14.5598 15.19 14.4032 15.8033 14.0898 16.35C13.7765 16.89 13.3465 17.3133 12.7998 17.62C12.2598 17.92 11.6632 18.07 11.0098 18.07ZM11.0098 17.08C11.4698 17.08 11.8798 16.9767 12.2398 16.77C12.5998 16.5567 12.8798 16.2567 13.0798 15.87C13.2865 15.4767 13.3898 15.0233 13.3898 14.51C13.3898 13.9967 13.2865 13.5467 13.0798 13.16C12.8798 12.7733 12.5998 12.4767 12.2398 12.27C11.8798 12.0633 11.4698 11.96 11.0098 11.96C10.5498 11.96 10.1398 12.0633 9.77984 12.27C9.41984 12.4767 9.13651 12.7733 8.92984 13.16C8.72984 13.5467 8.62984 13.9967 8.62984 14.51C8.62984 15.0233 8.72984 15.4767 8.92984 15.87C9.13651 16.2567 9.41984 16.5567 9.77984 16.77C10.1398 16.9767 10.5498 17.08 11.0098 17.08ZM23.2729 13.9181V8.48546H22.7306C22.2968 8.48546 21.9846 8.40001 21.7939 8.2291C21.6099 8.0582 21.5179 7.78213 21.5179 7.4009C21.5179 7.01966 21.6099 6.74359 21.7939 6.57269C21.9846 6.39521 22.2968 6.30648 22.7306 6.30648H25.5307C25.958 6.30648 26.2669 6.39521 26.4576 6.57269C26.6482 6.74359 26.7435 7.01966 26.7435 7.4009C26.7435 7.74927 26.6515 8.01877 26.4674 8.20939C26.2899 8.39343 26.0336 8.48546 25.6984 8.48546H25.5307V17.438C25.5307 17.7469 25.4979 17.9408 25.4321 18.0197C25.3664 18.0986 25.2185 18.138 24.9885 18.138H24.0025C23.687 18.138 23.4635 18.1052 23.332 18.0394C23.2072 17.9737 23.0987 17.8587 23.0067 17.6944L18.9051 10.487V15.8407H19.4769C19.9042 15.8407 20.2098 15.9229 20.3939 16.0872C20.5779 16.2516 20.6699 16.5243 20.6699 16.9056C20.6699 17.2934 20.5746 17.5727 20.384 17.7436C20.2 17.9145 19.8976 18 19.4769 18H16.6472C16.22 18 15.911 17.9145 15.7204 17.7436C15.5298 17.5727 15.4345 17.2934 15.4345 16.9056C15.4345 16.5572 15.5232 16.2943 15.7007 16.1168C15.8782 15.9328 16.1411 15.8407 16.4895 15.8407H16.6472V8.48546H16.4895C16.1542 8.48546 15.8946 8.39343 15.7106 8.20939C15.5265 8.01877 15.4345 7.74927 15.4345 7.4009C15.4345 7.01966 15.5298 6.74359 15.7204 6.57269C15.9176 6.39521 16.2265 6.30648 16.6472 6.30648H18.2642C18.652 6.30648 18.9149 6.35906 19.053 6.46423C19.191 6.56283 19.3455 6.76659 19.5164 7.07553L23.2729 13.9181ZM33.1128 8.26854C32.2649 8.26854 31.5977 8.61034 31.1113 9.29395C30.6315 9.97755 30.3915 10.9274 30.3915 12.1434C30.3915 13.3594 30.6347 14.3125 31.1212 15.0027C31.6076 15.6928 32.2714 16.0379 33.1128 16.0379C33.9607 16.0379 34.6279 15.6961 35.1143 15.0125C35.6007 14.3224 35.8439 13.366 35.8439 12.1434C35.8439 10.9274 35.6007 9.97755 35.1143 9.29395C34.6345 8.61034 33.9673 8.26854 33.1128 8.26854ZM33.1128 5.98111C34.7298 5.98111 36.0608 6.55954 37.106 7.7164C38.1511 8.87327 38.6736 10.3489 38.6736 12.1434C38.6736 13.951 38.1544 15.4299 37.1158 16.5802C36.0773 17.7305 34.7429 18.3056 33.1128 18.3056C31.5024 18.3056 30.1713 17.7272 29.1196 16.5704C28.068 15.4069 27.5421 13.9313 27.5421 12.1434C27.5421 10.3424 28.0614 8.86669 29.0999 7.7164C30.1451 6.55954 31.4827 5.98111 33.1128 5.98111ZM48.5727 8.46574H46.512V15.821H48.1685C48.6089 15.821 48.9244 15.9065 49.115 16.0774C49.3056 16.2483 49.4009 16.5243 49.4009 16.9056C49.4009 17.2934 49.3056 17.5727 49.115 17.7436C48.9244 17.9145 48.6089 18 48.1685 18H42.3118C41.878 18 41.5658 17.9145 41.3752 17.7436C41.1846 17.5727 41.0892 17.2934 41.0892 16.9056C41.0892 16.5178 41.1813 16.2417 41.3653 16.0774C41.5559 15.9065 41.8714 15.821 42.3118 15.821H43.9683V8.46574H41.9076L41.8484 10.4672V10.7137C41.8484 11.0292 41.7597 11.2757 41.5822 11.4532C41.4113 11.6307 41.1714 11.7194 40.8625 11.7194C40.4944 11.7194 40.2216 11.6274 40.0441 11.4433C39.8732 11.2527 39.7878 10.9536 39.7878 10.5461V10.4672L39.8962 7.51921C39.9159 6.93421 39.9948 6.58255 40.1329 6.46423C40.2775 6.34592 40.5667 6.28676 41.0005 6.28676H49.4798C49.9136 6.28676 50.1995 6.34592 50.3376 6.46423C50.4822 6.58255 50.5676 6.93421 50.5939 7.51921L50.6925 10.4672V10.5461C50.6925 10.9602 50.6104 11.2593 50.446 11.4433C50.2817 11.6274 50.0155 11.7194 49.6474 11.7194C49.2925 11.7194 49.0361 11.6307 48.8784 11.4532C48.7272 11.2692 48.645 10.9405 48.6319 10.4672L48.5727 8.46574ZM60.1972 8.38686H55.6125V10.9109H57.3478V10.7926C57.3478 10.4179 57.4299 10.1386 57.5943 9.95454C57.7586 9.77049 58.0084 9.67847 58.3436 9.67847C58.6394 9.67847 58.8793 9.76392 59.0634 9.93482C59.254 10.0991 59.3493 10.3095 59.3493 10.5658C59.3493 10.579 59.3526 10.6217 59.3591 10.694C59.3657 10.7663 59.369 10.8386 59.369 10.9109V12.9519C59.369 13.3923 59.2901 13.7078 59.1324 13.8984C58.9746 14.089 58.7183 14.1843 58.3633 14.1843C58.0281 14.1843 57.775 14.0956 57.6041 13.9181C57.4332 13.7406 57.3478 13.4777 57.3478 13.1293V12.9519H55.6125V15.8999H60.1972V14.7266C60.1972 14.2862 60.2794 13.9707 60.4437 13.7801C60.6146 13.5895 60.8907 13.4941 61.2719 13.4941C61.6466 13.4941 61.9128 13.5895 62.0705 13.7801C62.2349 13.9641 62.317 14.2796 62.317 14.7266V17.1126C62.317 17.4676 62.248 17.7042 62.11 17.8225C61.9719 17.9408 61.6992 18 61.2916 18H53.2166C52.7828 18 52.4705 17.9145 52.2799 17.7436C52.0959 17.5727 52.0039 17.2934 52.0039 16.9056C52.0039 16.5572 52.0926 16.2943 52.2701 16.1168C52.4475 15.9328 52.7072 15.8407 53.049 15.8407H53.2166V8.48546H53.049C52.7138 8.48546 52.4541 8.39343 52.2701 8.20939C52.0926 8.01877 52.0039 7.74927 52.0039 7.4009C52.0039 7.01966 52.0992 6.74359 52.2898 6.57269C52.4804 6.39521 52.7893 6.30648 53.2166 6.30648H61.2916C61.6926 6.30648 61.9621 6.36892 62.1001 6.49381C62.2447 6.61213 62.317 6.85204 62.317 7.21356V9.42212C62.317 9.86909 62.2349 10.1912 62.0705 10.3884C61.9062 10.579 61.64 10.6743 61.2719 10.6743C60.8907 10.6743 60.6146 10.5757 60.4437 10.3785C60.2794 10.1813 60.1972 9.86252 60.1972 9.42212V8.38686ZM68.281 11.05V11.98H65.331V14.03H67.631V14.96H65.331V18H64.191V11.05H68.281ZM72.5075 18.07C71.8608 18.07 71.2642 17.92 70.7175 17.62C70.1775 17.3133 69.7475 16.89 69.4275 16.35C69.1142 15.8033 68.9575 15.19 68.9575 14.51C68.9575 13.83 69.1142 13.22 69.4275 12.68C69.7475 12.14 70.1775 11.72 70.7175 11.42C71.2642 11.1133 71.8608 10.96 72.5075 10.96C73.1608 10.96 73.7575 11.1133 74.2975 11.42C74.8442 11.72 75.2742 12.14 75.5875 12.68C75.9008 13.22 76.0575 13.83 76.0575 14.51C76.0575 15.19 75.9008 15.8033 75.5875 16.35C75.2742 16.89 74.8442 17.3133 74.2975 17.62C73.7575 17.92 73.1608 18.07 72.5075 18.07ZM72.5075 17.08C72.9675 17.08 73.3775 16.9767 73.7375 16.77C74.0975 16.5567 74.3775 16.2567 74.5775 15.87C74.7842 15.4767 74.8875 15.0233 74.8875 14.51C74.8875 13.9967 74.7842 13.5467 74.5775 13.16C74.3775 12.7733 74.0975 12.4767 73.7375 12.27C73.3775 12.0633 72.9675 11.96 72.5075 11.96C72.0475 11.96 71.6375 12.0633 71.2775 12.27C70.9175 12.4767 70.6342 12.7733 70.4275 13.16C70.2275 13.5467 70.1275 13.9967 70.1275 14.51C70.1275 15.0233 70.2275 15.4767 70.4275 15.87C70.6342 16.2567 70.9175 16.5567 71.2775 16.77C71.6375 16.9767 72.0475 17.08 72.5075 17.08ZM80.7893 18L79.1893 15.22H78.3193V18H77.1793V11.05H79.5793C80.1126 11.05 80.5626 11.1433 80.9293 11.33C81.3026 11.5167 81.5793 11.7667 81.7593 12.08C81.946 12.3933 82.0393 12.7433 82.0393 13.13C82.0393 13.5833 81.906 13.9967 81.6393 14.37C81.3793 14.7367 80.976 14.9867 80.4293 15.12L82.1493 18H80.7893ZM78.3193 14.31H79.5793C80.006 14.31 80.326 14.2033 80.5393 13.99C80.7593 13.7767 80.8693 13.49 80.8693 13.13C80.8693 12.77 80.7626 12.49 80.5493 12.29C80.336 12.0833 80.0126 11.98 79.5793 11.98H78.3193V14.31ZM88.5277 13.05C88.3477 12.7033 88.0977 12.4433 87.7777 12.27C87.4577 12.09 87.0877 12 86.6677 12C86.2077 12 85.7977 12.1033 85.4377 12.31C85.0777 12.5167 84.7943 12.81 84.5877 13.19C84.3877 13.57 84.2877 14.01 84.2877 14.51C84.2877 15.01 84.3877 15.4533 84.5877 15.84C84.7943 16.22 85.0777 16.5133 85.4377 16.72C85.7977 16.9267 86.2077 17.03 86.6677 17.03C87.2877 17.03 87.791 16.8567 88.1777 16.51C88.5643 16.1633 88.801 15.6933 88.8877 15.1H86.2777V14.19H90.1077V15.08C90.0343 15.62 89.841 16.1167 89.5277 16.57C89.221 17.0233 88.8177 17.3867 88.3177 17.66C87.8243 17.9267 87.2743 18.06 86.6677 18.06C86.0143 18.06 85.4177 17.91 84.8777 17.61C84.3377 17.3033 83.9077 16.88 83.5877 16.34C83.2743 15.8 83.1177 15.19 83.1177 14.51C83.1177 13.83 83.2743 13.22 83.5877 12.68C83.9077 12.14 84.3377 11.72 84.8777 11.42C85.4243 11.1133 86.021 10.96 86.6677 10.96C87.4077 10.96 88.0643 11.1433 88.6377 11.51C89.2177 11.87 89.6377 12.3833 89.8977 13.05H88.5277ZM92.372 11.97V14.01H94.772V14.94H92.372V17.07H95.072V18H91.232V11.04H95.072V11.97H92.372ZM100.966 11.05V11.98H99.1162V18H97.9762V11.98H96.1162V11.05H100.966Z" fill="#ffecd1"/>
<path d="M116.46 12H115.32L111.89 6.81V12H110.75V5.04H111.89L115.32 10.22V5.04H116.46V12ZM121.127 12.07C120.48 12.07 119.884 11.92 119.337 11.62C118.797 11.3133 118.367 10.89 118.047 10.35C117.734 9.80333 117.577 9.19 117.577 8.51C117.577 7.83 117.734 7.22 118.047 6.68C118.367 6.14 118.797 5.72 119.337 5.42C119.884 5.11333 120.48 4.96 121.127 4.96C121.78 4.96 122.377 5.11333 122.917 5.42C123.464 5.72 123.894 6.14 124.207 6.68C124.52 7.22 124.677 7.83 124.677 8.51C124.677 9.19 124.52 9.80333 124.207 10.35C123.894 10.89 123.464 11.3133 122.917 11.62C122.377 11.92 121.78 12.07 121.127 12.07ZM121.127 11.08C121.587 11.08 121.997 10.9767 122.357 10.77C122.717 10.5567 122.997 10.2567 123.197 9.87C123.404 9.47667 123.507 9.02333 123.507 8.51C123.507 7.99667 123.404 7.54667 123.197 7.16C122.997 6.77333 122.717 6.47667 122.357 6.27C121.997 6.06333 121.587 5.96 121.127 5.96C120.667 5.96 120.257 6.06333 119.897 6.27C119.537 6.47667 119.254 6.77333 119.047 7.16C118.847 7.54667 118.747 7.99667 118.747 8.51C118.747 9.02333 118.847 9.47667 119.047 9.87C119.254 10.2567 119.537 10.5567 119.897 10.77C120.257 10.9767 120.667 11.08 121.127 11.08ZM130.289 5.05V5.98H128.439V12H127.299V5.98H125.439V5.05H130.289ZM132.583 5.97V8.01H134.983V8.94H132.583V11.07H135.283V12H131.443V5.04H135.283V5.97H132.583ZM138.978 12.07C138.511 12.07 138.091 11.99 137.718 11.83C137.344 11.6633 137.051 11.43 136.838 11.13C136.624 10.83 136.518 10.48 136.518 10.08H137.738C137.764 10.38 137.881 10.6267 138.088 10.82C138.301 11.0133 138.598 11.11 138.978 11.11C139.371 11.11 139.678 11.0167 139.898 10.83C140.118 10.6367 140.228 10.39 140.228 10.09C140.228 9.85667 140.158 9.66667 140.018 9.52C139.884 9.37333 139.714 9.26 139.508 9.18C139.308 9.1 139.028 9.01333 138.668 8.92C138.214 8.8 137.844 8.68 137.558 8.56C137.278 8.43333 137.038 8.24 136.838 7.98C136.638 7.72 136.538 7.37333 136.538 6.94C136.538 6.54 136.638 6.19 136.838 5.89C137.038 5.59 137.318 5.36 137.678 5.2C138.038 5.04 138.454 4.96 138.928 4.96C139.601 4.96 140.151 5.13 140.578 5.47C141.011 5.80333 141.251 6.26333 141.298 6.85H140.038C140.018 6.59667 139.898 6.38 139.678 6.2C139.458 6.02 139.168 5.93 138.808 5.93C138.481 5.93 138.214 6.01333 138.008 6.18C137.801 6.34667 137.698 6.58667 137.698 6.9C137.698 7.11333 137.761 7.29 137.888 7.43C138.021 7.56333 138.188 7.67 138.388 7.75C138.588 7.83 138.861 7.91667 139.208 8.01C139.668 8.13667 140.041 8.26333 140.328 8.39C140.621 8.51667 140.868 8.71333 141.068 8.98C141.274 9.24 141.378 9.59 141.378 10.03C141.378 10.3833 141.281 10.7167 141.088 11.03C140.901 11.3433 140.624 11.5967 140.258 11.79C139.898 11.9767 139.471 12.07 138.978 12.07ZM146.46 5.05V12H145.32V5.05H146.46ZM153.667 12H152.527L149.097 6.81V12H147.957V5.04H149.097L152.527 10.22V5.04H153.667V12ZM162.912 5.05L160.612 9.48V12H159.472V9.48L157.162 5.05H158.432L160.042 8.46L161.652 5.05H162.912ZM166.986 12.07C166.34 12.07 165.743 11.92 165.196 11.62C164.656 11.3133 164.226 10.89 163.906 10.35C163.593 9.80333 163.436 9.19 163.436 8.51C163.436 7.83 163.593 7.22 163.906 6.68C164.226 6.14 164.656 5.72 165.196 5.42C165.743 5.11333 166.34 4.96 166.986 4.96C167.64 4.96 168.236 5.11333 168.776 5.42C169.323 5.72 169.753 6.14 170.066 6.68C170.38 7.22 170.536 7.83 170.536 8.51C170.536 9.19 170.38 9.80333 170.066 10.35C169.753 10.89 169.323 11.3133 168.776 11.62C168.236 11.92 167.64 12.07 166.986 12.07ZM166.986 11.08C167.446 11.08 167.856 10.9767 168.216 10.77C168.576 10.5567 168.856 10.2567 169.056 9.87C169.263 9.47667 169.366 9.02333 169.366 8.51C169.366 7.99667 169.263 7.54667 169.056 7.16C168.856 6.77333 168.576 6.47667 168.216 6.27C167.856 6.06333 167.446 5.96 166.986 5.96C166.526 5.96 166.116 6.06333 165.756 6.27C165.396 6.47667 165.113 6.77333 164.906 7.16C164.706 7.54667 164.606 7.99667 164.606 8.51C164.606 9.02333 164.706 9.47667 164.906 9.87C165.113 10.2567 165.396 10.5567 165.756 10.77C166.116 10.9767 166.526 11.08 166.986 11.08ZM172.788 5.05V9.48C172.788 10.0067 172.925 10.4033 173.198 10.67C173.478 10.9367 173.865 11.07 174.358 11.07C174.858 11.07 175.245 10.9367 175.518 10.67C175.798 10.4033 175.938 10.0067 175.938 9.48V5.05H177.078V9.46C177.078 10.0267 176.955 10.5067 176.708 10.9C176.462 11.2933 176.132 11.5867 175.718 11.78C175.305 11.9733 174.848 12.07 174.348 12.07C173.848 12.07 173.392 11.9733 172.978 11.78C172.572 11.5867 172.248 11.2933 172.008 10.9C171.768 10.5067 171.648 10.0267 171.648 9.46V5.05H172.788ZM182.173 12L180.573 9.22H179.703V12H178.563V5.05H180.963C181.496 5.05 181.946 5.14333 182.313 5.33C182.686 5.51667 182.963 5.76667 183.143 6.08C183.329 6.39333 183.423 6.74333 183.423 7.13C183.423 7.58333 183.289 7.99667 183.023 8.37C182.763 8.73667 182.359 8.98667 181.813 9.12L183.533 12H182.173ZM179.703 8.31H180.963C181.389 8.31 181.709 8.20333 181.923 7.99C182.143 7.77667 182.253 7.49 182.253 7.13C182.253 6.77 182.146 6.49 181.933 6.29C181.719 6.08333 181.396 5.98 180.963 5.98H179.703V8.31ZM111.89 22.08H114.24V23H110.75V16.05H111.89V22.08ZM118.363 23.07C117.717 23.07 117.12 22.92 116.573 22.62C116.033 22.3133 115.603 21.89 115.283 21.35C114.97 20.8033 114.813 20.19 114.813 19.51C114.813 18.83 114.97 18.22 115.283 17.68C115.603 17.14 116.033 16.72 116.573 16.42C117.12 16.1133 117.717 15.96 118.363 15.96C119.017 15.96 119.613 16.1133 120.153 16.42C120.7 16.72 121.13 17.14 121.443 17.68C121.757 18.22 121.913 18.83 121.913 19.51C121.913 20.19 121.757 20.8033 121.443 21.35C121.13 21.89 120.7 22.3133 120.153 22.62C119.613 22.92 119.017 23.07 118.363 23.07ZM118.363 22.08C118.823 22.08 119.233 21.9767 119.593 21.77C119.953 21.5567 120.233 21.2567 120.433 20.87C120.64 20.4767 120.743 20.0233 120.743 19.51C120.743 18.9967 120.64 18.5467 120.433 18.16C120.233 17.7733 119.953 17.4767 119.593 17.27C119.233 17.0633 118.823 16.96 118.363 16.96C117.903 16.96 117.493 17.0633 117.133 17.27C116.773 17.4767 116.49 17.7733 116.283 18.16C116.083 18.5467 115.983 18.9967 115.983 19.51C115.983 20.0233 116.083 20.4767 116.283 20.87C116.49 21.2567 116.773 21.5567 117.133 21.77C117.493 21.9767 117.903 22.08 118.363 22.08ZM122.655 19.51C122.655 18.83 122.812 18.22 123.125 17.68C123.445 17.14 123.875 16.72 124.415 16.42C124.962 16.1133 125.558 15.96 126.205 15.96C126.945 15.96 127.602 16.1433 128.175 16.51C128.755 16.87 129.175 17.3833 129.435 18.05H128.065C127.885 17.6833 127.635 17.41 127.315 17.23C126.995 17.05 126.625 16.96 126.205 16.96C125.745 16.96 125.335 17.0633 124.975 17.27C124.615 17.4767 124.332 17.7733 124.125 18.16C123.925 18.5467 123.825 18.9967 123.825 19.51C123.825 20.0233 123.925 20.4733 124.125 20.86C124.332 21.2467 124.615 21.5467 124.975 21.76C125.335 21.9667 125.745 22.07 126.205 22.07C126.625 22.07 126.995 21.98 127.315 21.8C127.635 21.62 127.885 21.3467 128.065 20.98H129.435C129.175 21.6467 128.755 22.16 128.175 22.52C127.602 22.88 126.945 23.06 126.205 23.06C125.552 23.06 124.955 22.91 124.415 22.61C123.875 22.3033 123.445 21.88 123.125 21.34C122.812 20.8 122.655 20.19 122.655 19.51ZM134.96 21.58H132.05L131.55 23H130.36L132.85 16.04H134.17L136.66 23H135.46L134.96 21.58ZM134.64 20.65L133.51 17.42L132.37 20.65H134.64ZM138.882 22.08H141.232V23H137.742V16.05H138.882V22.08ZM147.073 23.07C146.607 23.07 146.187 22.99 145.813 22.83C145.44 22.6633 145.147 22.43 144.933 22.13C144.72 21.83 144.613 21.48 144.613 21.08H145.833C145.86 21.38 145.977 21.6267 146.183 21.82C146.397 22.0133 146.693 22.11 147.073 22.11C147.467 22.11 147.773 22.0167 147.993 21.83C148.213 21.6367 148.323 21.39 148.323 21.09C148.323 20.8567 148.253 20.6667 148.113 20.52C147.98 20.3733 147.81 20.26 147.603 20.18C147.403 20.1 147.123 20.0133 146.763 19.92C146.31 19.8 145.94 19.68 145.653 19.56C145.373 19.4333 145.133 19.24 144.933 18.98C144.733 18.72 144.633 18.3733 144.633 17.94C144.633 17.54 144.733 17.19 144.933 16.89C145.133 16.59 145.413 16.36 145.773 16.2C146.133 16.04 146.55 15.96 147.023 15.96C147.697 15.96 148.247 16.13 148.673 16.47C149.107 16.8033 149.347 17.2633 149.393 17.85H148.133C148.113 17.5967 147.993 17.38 147.773 17.2C147.553 17.02 147.263 16.93 146.903 16.93C146.577 16.93 146.31 17.0133 146.103 17.18C145.897 17.3467 145.793 17.5867 145.793 17.9C145.793 18.1133 145.857 18.29 145.983 18.43C146.117 18.5633 146.283 18.67 146.483 18.75C146.683 18.83 146.957 18.9167 147.303 19.01C147.763 19.1367 148.137 19.2633 148.423 19.39C148.717 19.5167 148.963 19.7133 149.163 19.98C149.37 20.24 149.473 20.59 149.473 21.03C149.473 21.3833 149.377 21.7167 149.183 22.03C148.997 22.3433 148.72 22.5967 148.353 22.79C147.993 22.9767 147.567 23.07 147.073 23.07ZM155.308 16.05V16.98H153.458V23H152.318V16.98H150.458V16.05H155.308ZM159.633 23.07C158.986 23.07 158.39 22.92 157.843 22.62C157.303 22.3133 156.873 21.89 156.553 21.35C156.24 20.8033 156.083 20.19 156.083 19.51C156.083 18.83 156.24 18.22 156.553 17.68C156.873 17.14 157.303 16.72 157.843 16.42C158.39 16.1133 158.986 15.96 159.633 15.96C160.286 15.96 160.883 16.1133 161.423 16.42C161.97 16.72 162.4 17.14 162.713 17.68C163.026 18.22 163.183 18.83 163.183 19.51C163.183 20.19 163.026 20.8033 162.713 21.35C162.4 21.89 161.97 22.3133 161.423 22.62C160.883 22.92 160.286 23.07 159.633 23.07ZM159.633 22.08C160.093 22.08 160.503 21.9767 160.863 21.77C161.223 21.5567 161.503 21.2567 161.703 20.87C161.91 20.4767 162.013 20.0233 162.013 19.51C162.013 18.9967 161.91 18.5467 161.703 18.16C161.503 17.7733 161.223 17.4767 160.863 17.27C160.503 17.0633 160.093 16.96 159.633 16.96C159.173 16.96 158.763 17.0633 158.403 17.27C158.043 17.4767 157.76 17.7733 157.553 18.16C157.353 18.5467 157.253 18.9967 157.253 19.51C157.253 20.0233 157.353 20.4767 157.553 20.87C157.76 21.2567 158.043 21.5567 158.403 21.77C158.763 21.9767 159.173 22.08 159.633 22.08ZM167.915 23L166.315 20.22H165.445V23H164.305V16.05H166.705C167.238 16.05 167.688 16.1433 168.055 16.33C168.428 16.5167 168.705 16.7667 168.885 17.08C169.071 17.3933 169.165 17.7433 169.165 18.13C169.165 18.5833 169.031 18.9967 168.765 19.37C168.505 19.7367 168.101 19.9867 167.555 20.12L169.275 23H167.915ZM165.445 19.31H166.705C167.131 19.31 167.451 19.2033 167.665 18.99C167.885 18.7767 167.995 18.49 167.995 18.13C167.995 17.77 167.888 17.49 167.675 17.29C167.461 17.0833 167.138 16.98 166.705 16.98H165.445V19.31ZM174.813 21.58H171.903L171.403 23H170.213L172.703 16.04H174.023L176.513 23H175.313L174.813 21.58ZM174.493 20.65L173.363 17.42L172.223 20.65H174.493ZM182.626 18.05C182.446 17.7033 182.196 17.4433 181.876 17.27C181.556 17.09 181.186 17 180.766 17C180.306 17 179.896 17.1033 179.536 17.31C179.176 17.5167 178.892 17.81 178.686 18.19C178.486 18.57 178.386 19.01 178.386 19.51C178.386 20.01 178.486 20.4533 178.686 20.84C178.892 21.22 179.176 21.5133 179.536 21.72C179.896 21.9267 180.306 22.03 180.766 22.03C181.386 22.03 181.889 21.8567 182.276 21.51C182.662 21.1633 182.899 20.6933 182.986 20.1H180.376V19.19H184.206V20.08C184.132 20.62 183.939 21.1167 183.626 21.57C183.319 22.0233 182.916 22.3867 182.416 22.66C181.922 22.9267 181.372 23.06 180.766 23.06C180.112 23.06 179.516 22.91 178.976 22.61C178.436 22.3033 178.006 21.88 177.686 21.34C177.372 20.8 177.216 20.19 177.216 19.51C177.216 18.83 177.372 18.22 177.686 17.68C178.006 17.14 178.436 16.72 178.976 16.42C179.522 16.1133 180.119 15.96 180.766 15.96C181.506 15.96 182.162 16.1433 182.736 16.51C183.316 16.87 183.736 17.3833 183.996 18.05H182.626ZM186.47 16.97V19.01H188.87V19.94H186.47V22.07H189.17V23H185.33V16.04H189.17V16.97H186.47Z" fill="#ffecd1"/>
<rect x="105.553" y="0.234009" width="1.23404" height="27.766" fill="#ffecd1"/>
</svg>
