<svg width="343" height="47" viewBox="0 0 343 47" fill="none" xmlns="http://www.w3.org/2000/svg">
<path d="M5.436 19.49C6.768 19.49 7.932 19.748 8.928 20.264C9.936 20.768 10.71 21.5 11.25 22.46C11.802 23.408 12.078 24.518 12.078 25.79C12.078 27.062 11.802 28.166 11.25 29.102C10.71 30.038 9.936 30.758 8.928 31.262C7.932 31.754 6.768 32 5.436 32H1.35V19.49H5.436ZM5.436 30.326C6.9 30.326 8.022 29.93 8.802 29.138C9.582 28.346 9.972 27.23 9.972 25.79C9.972 24.338 9.582 23.204 8.802 22.388C8.022 21.572 6.9 21.164 5.436 21.164H3.402V30.326H5.436ZM19.8177 32.126C18.6537 32.126 17.5797 31.856 16.5957 31.316C15.6237 30.764 14.8497 30.002 14.2737 29.03C13.7097 28.046 13.4277 26.942 13.4277 25.718C13.4277 24.494 13.7097 23.396 14.2737 22.424C14.8497 21.452 15.6237 20.696 16.5957 20.156C17.5797 19.604 18.6537 19.328 19.8177 19.328C20.9937 19.328 22.0677 19.604 23.0397 20.156C24.0237 20.696 24.7977 21.452 25.3617 22.424C25.9257 23.396 26.2077 24.494 26.2077 25.718C26.2077 26.942 25.9257 28.046 25.3617 29.03C24.7977 30.002 24.0237 30.764 23.0397 31.316C22.0677 31.856 20.9937 32.126 19.8177 32.126ZM19.8177 30.344C20.6457 30.344 21.3837 30.158 22.0317 29.786C22.6797 29.402 23.1837 28.862 23.5437 28.166C23.9157 27.458 24.1017 26.642 24.1017 25.718C24.1017 24.794 23.9157 23.984 23.5437 23.288C23.1837 22.592 22.6797 22.058 22.0317 21.686C21.3837 21.314 20.6457 21.128 19.8177 21.128C18.9897 21.128 18.2517 21.314 17.6037 21.686C16.9557 22.058 16.4457 22.592 16.0737 23.288C15.7137 23.984 15.5337 24.794 15.5337 25.718C15.5337 26.642 15.7137 27.458 16.0737 28.166C16.4457 28.862 16.9557 29.402 17.6037 29.786C18.2517 30.158 18.9897 30.344 19.8177 30.344ZM41.556 24.8166V15.2561H40.6017C39.8383 15.2561 39.2888 15.1057 38.9534 14.805C38.6295 14.5042 38.4675 14.0184 38.4675 13.3475C38.4675 12.6766 38.6295 12.1907 38.9534 11.89C39.2888 11.5777 39.8383 11.4215 40.6017 11.4215H45.5295C46.2813 11.4215 46.825 11.5777 47.1605 11.89C47.4959 12.1907 47.6637 12.6766 47.6637 13.3475C47.6637 13.9606 47.5017 14.4348 47.1778 14.7703C46.8655 15.0942 46.4144 15.2561 45.8244 15.2561H45.5295V31.011C45.5295 31.5547 45.4716 31.8959 45.356 32.0347C45.2403 32.1735 44.98 32.2429 44.5751 32.2429H42.84C42.2848 32.2429 41.8915 32.1851 41.6602 32.0694C41.4404 31.9537 41.2495 31.7513 41.0876 31.4621L33.8695 18.7784V28.2001H34.8758C35.6277 28.2001 36.1656 28.3447 36.4895 28.6339C36.8134 28.9231 36.9753 29.4031 36.9753 30.074C36.9753 30.7565 36.8076 31.2481 36.4722 31.5489C36.1483 31.8496 35.6162 32 34.8758 32H29.8961C29.1442 32 28.6005 31.8496 28.265 31.5489C27.9296 31.2481 27.7619 30.7565 27.7619 30.074C27.7619 29.4609 27.918 28.9982 28.2303 28.6859C28.5427 28.362 29.0054 28.2001 29.6184 28.2001H29.8961V15.2561H29.6184C29.0285 15.2561 28.5716 15.0942 28.2477 14.7703C27.9238 14.4348 27.7619 13.9606 27.7619 13.3475C27.7619 12.6766 27.9296 12.1907 28.265 11.89C28.6121 11.5777 29.1557 11.4215 29.8961 11.4215H32.7416C33.4241 11.4215 33.8868 11.5141 34.1297 11.6991C34.3727 11.8726 34.6445 12.2312 34.9452 12.7749L41.556 24.8166ZM58.8725 14.8744C57.3803 14.8744 56.2062 15.4759 55.3502 16.6789C54.5058 17.8819 54.0836 19.5534 54.0836 21.6934C54.0836 23.8334 54.5116 25.5107 55.3676 26.7252C56.2236 27.9398 57.3919 28.5471 58.8725 28.5471C60.3647 28.5471 61.5388 27.9456 62.3948 26.7426C63.2508 25.528 63.6788 23.8449 63.6788 21.6934C63.6788 19.5534 63.2508 17.8819 62.3948 16.6789C61.5504 15.4759 60.3763 14.8744 58.8725 14.8744ZM58.8725 10.8489C61.7181 10.8489 64.0605 11.8669 65.8997 13.9027C67.739 15.9386 68.6586 18.5355 68.6586 21.6934C68.6586 24.8745 67.7447 27.4771 65.9171 29.5014C64.0894 31.5257 61.7412 32.5379 58.8725 32.5379C56.0385 32.5379 53.6961 31.52 51.8453 29.4841C49.9945 27.4366 49.0691 24.8398 49.0691 21.6934C49.0691 18.5239 49.9829 15.927 51.8106 13.9027C53.6498 11.8669 56.0038 10.8489 58.8725 10.8489ZM86.0792 15.2214H82.4528V28.1654H85.3678C86.1428 28.1654 86.698 28.3158 87.0335 28.6165C87.3689 28.9173 87.5366 29.4031 87.5366 30.074C87.5366 30.7565 87.3689 31.2481 87.0335 31.5489C86.698 31.8496 86.1428 32 85.3678 32H75.0612C74.2977 32 73.7483 31.8496 73.4128 31.5489C73.0773 31.2481 72.9096 30.7565 72.9096 30.074C72.9096 29.3915 73.0716 28.9057 73.3954 28.6165C73.7309 28.3158 74.2861 28.1654 75.0612 28.1654H77.9762V15.2214H74.3498L74.2457 18.7437V19.1775C74.2457 19.7327 74.0895 20.1665 73.7772 20.4788C73.4764 20.7911 73.0542 20.9473 72.5105 20.9473C71.8628 20.9473 71.3827 20.7854 71.0704 20.4615C70.7696 20.126 70.6193 19.5997 70.6193 18.8825V18.7437L70.8101 13.5557C70.8448 12.5262 70.9836 11.9073 71.2265 11.6991C71.481 11.4909 71.99 11.3868 72.7535 11.3868H87.6755C88.4389 11.3868 88.9421 11.4909 89.185 11.6991C89.4395 11.9073 89.5899 12.5262 89.6361 13.5557L89.8097 18.7437V18.8825C89.8097 19.6113 89.6651 20.1376 89.3759 20.4615C89.0867 20.7854 88.6182 20.9473 87.9704 20.9473C87.3458 20.9473 86.8947 20.7911 86.617 20.4788C86.351 20.1549 86.2064 19.5766 86.1833 18.7437L86.0792 15.2214ZM106.536 15.0826H98.4679V19.5245H101.522V19.3163C101.522 18.6569 101.666 18.1653 101.955 17.8414C102.245 17.5176 102.684 17.3556 103.274 17.3556C103.795 17.3556 104.217 17.506 104.541 17.8067C104.876 18.0959 105.044 18.4661 105.044 18.9172C105.044 18.9404 105.05 19.0155 105.061 19.1428C105.073 19.27 105.079 19.3973 105.079 19.5245V23.1162C105.079 23.8912 104.94 24.4465 104.662 24.7819C104.385 25.1174 103.934 25.2851 103.309 25.2851C102.719 25.2851 102.274 25.1289 101.973 24.8166C101.672 24.5043 101.522 24.0416 101.522 23.4285V23.1162H98.4679V28.3042H106.536V26.2394C106.536 25.4644 106.681 24.9092 106.97 24.5737C107.271 24.2382 107.757 24.0705 108.427 24.0705C109.087 24.0705 109.555 24.2382 109.833 24.5737C110.122 24.8976 110.267 25.4528 110.267 26.2394V30.4384C110.267 31.063 110.145 31.4795 109.902 31.6877C109.659 31.8959 109.179 32 108.462 32H94.2515C93.4881 32 92.9386 31.8496 92.6032 31.5489C92.2793 31.2481 92.1174 30.7565 92.1174 30.074C92.1174 29.4609 92.2735 28.9982 92.5858 28.6859C92.8982 28.362 93.3551 28.2001 93.9566 28.2001H94.2515V15.2561H93.9566C93.3666 15.2561 92.9097 15.0942 92.5858 14.7703C92.2735 14.4348 92.1174 13.9606 92.1174 13.3475C92.1174 12.6766 92.2851 12.1907 92.6205 11.89C92.956 11.5777 93.4997 11.4215 94.2515 11.4215H108.462C109.168 11.4215 109.642 11.5314 109.885 11.7512C110.139 11.9594 110.267 12.3816 110.267 13.0178V16.9045C110.267 17.6911 110.122 18.2579 109.833 18.6049C109.544 18.9404 109.075 19.1081 108.427 19.1081C107.757 19.1081 107.271 18.9346 106.97 18.5875C106.681 18.2405 106.536 17.6795 106.536 16.9045V15.0826ZM120.957 19.49V21.164H115.647V24.854H119.787V26.528H115.647V32H113.595V19.49H120.957ZM128.564 32.126C127.4 32.126 126.326 31.856 125.342 31.316C124.37 30.764 123.596 30.002 123.02 29.03C122.456 28.046 122.174 26.942 122.174 25.718C122.174 24.494 122.456 23.396 123.02 22.424C123.596 21.452 124.37 20.696 125.342 20.156C126.326 19.604 127.4 19.328 128.564 19.328C129.74 19.328 130.814 19.604 131.786 20.156C132.77 20.696 133.544 21.452 134.108 22.424C134.672 23.396 134.954 24.494 134.954 25.718C134.954 26.942 134.672 28.046 134.108 29.03C133.544 30.002 132.77 30.764 131.786 31.316C130.814 31.856 129.74 32.126 128.564 32.126ZM128.564 30.344C129.392 30.344 130.13 30.158 130.778 29.786C131.426 29.402 131.93 28.862 132.29 28.166C132.662 27.458 132.848 26.642 132.848 25.718C132.848 24.794 132.662 23.984 132.29 23.288C131.93 22.592 131.426 22.058 130.778 21.686C130.13 21.314 129.392 21.128 128.564 21.128C127.736 21.128 126.998 21.314 126.35 21.686C125.702 22.058 125.192 22.592 124.82 23.288C124.46 23.984 124.28 24.794 124.28 25.718C124.28 26.642 124.46 27.458 124.82 28.166C125.192 28.862 125.702 29.402 126.35 29.786C126.998 30.158 127.736 30.344 128.564 30.344ZM143.472 32L140.592 26.996H139.026V32H136.974V19.49H141.294C142.254 19.49 143.064 19.658 143.724 19.994C144.396 20.33 144.894 20.78 145.218 21.344C145.554 21.908 145.722 22.538 145.722 23.234C145.722 24.05 145.482 24.794 145.002 25.466C144.534 26.126 143.808 26.576 142.824 26.816L145.92 32H143.472ZM139.026 25.358H141.294C142.062 25.358 142.638 25.166 143.022 24.782C143.418 24.398 143.616 23.882 143.616 23.234C143.616 22.586 143.424 22.082 143.04 21.722C142.656 21.35 142.074 21.164 141.294 21.164H139.026V25.358ZM157.401 23.09C157.077 22.466 156.627 21.998 156.051 21.686C155.475 21.362 154.809 21.2 154.053 21.2C153.225 21.2 152.487 21.386 151.839 21.758C151.191 22.13 150.681 22.658 150.309 23.342C149.949 24.026 149.769 24.818 149.769 25.718C149.769 26.618 149.949 27.416 150.309 28.112C150.681 28.796 151.191 29.324 151.839 29.696C152.487 30.068 153.225 30.254 154.053 30.254C155.169 30.254 156.075 29.942 156.771 29.318C157.467 28.694 157.893 27.848 158.049 26.78H153.351V25.142H160.245V26.744C160.113 27.716 159.765 28.61 159.201 29.426C158.649 30.242 157.923 30.896 157.023 31.388C156.135 31.868 155.145 32.108 154.053 32.108C152.877 32.108 151.803 31.838 150.831 31.298C149.859 30.746 149.085 29.984 148.509 29.012C147.945 28.04 147.663 26.942 147.663 25.718C147.663 24.494 147.945 23.396 148.509 22.424C149.085 21.452 149.859 20.696 150.831 20.156C151.815 19.604 152.889 19.328 154.053 19.328C155.385 19.328 156.567 19.658 157.599 20.318C158.643 20.966 159.399 21.89 159.867 23.09H157.401ZM164.321 21.146V24.818H168.641V26.492H164.321V30.326H169.181V32H162.269V19.472H169.181V21.146H164.321ZM179.79 19.49V21.164H176.46V32H174.408V21.164H171.06V19.49H179.79Z" fill="#ffecd1"/>
<path d="M225.336 20H223.512L218.024 11.696V20H216.2V8.864H218.024L223.512 17.152V8.864H225.336V20ZM232.803 20.112C231.769 20.112 230.814 19.872 229.939 19.392C229.075 18.9013 228.387 18.224 227.875 17.36C227.374 16.4853 227.123 15.504 227.123 14.416C227.123 13.328 227.374 12.352 227.875 11.488C228.387 10.624 229.075 9.952 229.939 9.472C230.814 8.98133 231.769 8.736 232.803 8.736C233.849 8.736 234.803 8.98133 235.667 9.472C236.542 9.952 237.23 10.624 237.731 11.488C238.233 12.352 238.483 13.328 238.483 14.416C238.483 15.504 238.233 16.4853 237.731 17.36C237.23 18.224 236.542 18.9013 235.667 19.392C234.803 19.872 233.849 20.112 232.803 20.112ZM232.803 18.528C233.539 18.528 234.195 18.3627 234.771 18.032C235.347 17.6907 235.795 17.2107 236.115 16.592C236.446 15.9627 236.611 15.2373 236.611 14.416C236.611 13.5947 236.446 12.8747 236.115 12.256C235.795 11.6373 235.347 11.1627 234.771 10.832C234.195 10.5013 233.539 10.336 232.803 10.336C232.067 10.336 231.411 10.5013 230.835 10.832C230.259 11.1627 229.806 11.6373 229.475 12.256C229.155 12.8747 228.995 13.5947 228.995 14.416C228.995 15.2373 229.155 15.9627 229.475 16.592C229.806 17.2107 230.259 17.6907 230.835 18.032C231.411 18.3627 232.067 18.528 232.803 18.528ZM247.462 8.88V10.368H244.502V20H242.678V10.368H239.702V8.88H247.462ZM251.133 10.352V13.616H254.973V15.104H251.133V18.512H255.453V20H249.309V8.864H255.453V10.352H251.133ZM261.364 20.112C260.617 20.112 259.945 19.984 259.348 19.728C258.751 19.4613 258.281 19.088 257.94 18.608C257.599 18.128 257.428 17.568 257.428 16.928H259.38C259.423 17.408 259.609 17.8027 259.94 18.112C260.281 18.4213 260.756 18.576 261.364 18.576C261.993 18.576 262.484 18.4267 262.836 18.128C263.188 17.8187 263.364 17.424 263.364 16.944C263.364 16.5707 263.252 16.2667 263.028 16.032C262.815 15.7973 262.543 15.616 262.212 15.488C261.892 15.36 261.444 15.2213 260.868 15.072C260.143 14.88 259.551 14.688 259.092 14.496C258.644 14.2933 258.26 13.984 257.94 13.568C257.62 13.152 257.46 12.5973 257.46 11.904C257.46 11.264 257.62 10.704 257.94 10.224C258.26 9.744 258.708 9.376 259.284 9.12C259.86 8.864 260.527 8.736 261.284 8.736C262.361 8.736 263.241 9.008 263.924 9.552C264.617 10.0853 265.001 10.8213 265.076 11.76H263.06C263.028 11.3547 262.836 11.008 262.484 10.72C262.132 10.432 261.668 10.288 261.092 10.288C260.569 10.288 260.143 10.4213 259.812 10.688C259.481 10.9547 259.316 11.3387 259.316 11.84C259.316 12.1813 259.417 12.464 259.62 12.688C259.833 12.9013 260.1 13.072 260.42 13.2C260.74 13.328 261.177 13.4667 261.732 13.616C262.468 13.8187 263.065 14.0213 263.524 14.224C263.993 14.4267 264.388 14.7413 264.708 15.168C265.039 15.584 265.204 16.144 265.204 16.848C265.204 17.4133 265.049 17.9467 264.74 18.448C264.441 18.9493 263.999 19.3547 263.412 19.664C262.836 19.9627 262.153 20.112 261.364 20.112ZM273.337 8.88V20H271.513V8.88H273.337ZM284.867 20H283.043L277.555 11.696V20H275.731V8.864H277.555L283.043 17.152V8.864H284.867V20ZM299.659 8.88L295.979 15.968V20H294.155V15.968L290.459 8.88H292.491L295.067 14.336L297.643 8.88H299.659ZM306.178 20.112C305.144 20.112 304.189 19.872 303.314 19.392C302.45 18.9013 301.762 18.224 301.25 17.36C300.749 16.4853 300.498 15.504 300.498 14.416C300.498 13.328 300.749 12.352 301.25 11.488C301.762 10.624 302.45 9.952 303.314 9.472C304.189 8.98133 305.144 8.736 306.178 8.736C307.224 8.736 308.178 8.98133 309.042 9.472C309.917 9.952 310.605 10.624 311.106 11.488C311.608 12.352 311.858 13.328 311.858 14.416C311.858 15.504 311.608 16.4853 311.106 17.36C310.605 18.224 309.917 18.9013 309.042 19.392C308.178 19.872 307.224 20.112 306.178 20.112ZM306.178 18.528C306.914 18.528 307.57 18.3627 308.146 18.032C308.722 17.6907 309.17 17.2107 309.49 16.592C309.821 15.9627 309.986 15.2373 309.986 14.416C309.986 13.5947 309.821 12.8747 309.49 12.256C309.17 11.6373 308.722 11.1627 308.146 10.832C307.57 10.5013 306.914 10.336 306.178 10.336C305.442 10.336 304.786 10.5013 304.21 10.832C303.634 11.1627 303.181 11.6373 302.85 12.256C302.53 12.8747 302.37 13.5947 302.37 14.416C302.37 15.2373 302.53 15.9627 302.85 16.592C303.181 17.2107 303.634 17.6907 304.21 18.032C304.786 18.3627 305.442 18.528 306.178 18.528ZM315.461 8.88V15.968C315.461 16.8107 315.68 17.4453 316.117 17.872C316.565 18.2987 317.184 18.512 317.973 18.512C318.773 18.512 319.392 18.2987 319.829 17.872C320.277 17.4453 320.501 16.8107 320.501 15.968V8.88H322.325V15.936C322.325 16.8427 322.128 17.6107 321.733 18.24C321.338 18.8693 320.81 19.3387 320.149 19.648C319.488 19.9573 318.757 20.112 317.957 20.112C317.157 20.112 316.426 19.9573 315.765 19.648C315.114 19.3387 314.597 18.8693 314.213 18.24C313.829 17.6107 313.637 16.8427 313.637 15.936V8.88H315.461ZM330.476 20L327.916 15.552H326.524V20H324.7V8.88H328.54C329.393 8.88 330.113 9.02933 330.7 9.328C331.297 9.62667 331.74 10.0267 332.028 10.528C332.327 11.0293 332.476 11.5893 332.476 12.208C332.476 12.9333 332.263 13.5947 331.836 14.192C331.42 14.7787 330.775 15.1787 329.9 15.392L332.652 20H330.476ZM326.524 14.096H328.54C329.223 14.096 329.735 13.9253 330.076 13.584C330.428 13.2427 330.604 12.784 330.604 12.208C330.604 11.632 330.433 11.184 330.092 10.864C329.751 10.5333 329.233 10.368 328.54 10.368H326.524V14.096ZM218.024 36.528H221.784V38H216.2V26.88H218.024V36.528ZM228.381 38.112C227.347 38.112 226.392 37.872 225.517 37.392C224.653 36.9013 223.965 36.224 223.453 35.36C222.952 34.4853 222.701 33.504 222.701 32.416C222.701 31.328 222.952 30.352 223.453 29.488C223.965 28.624 224.653 27.952 225.517 27.472C226.392 26.9813 227.347 26.736 228.381 26.736C229.427 26.736 230.381 26.9813 231.245 27.472C232.12 27.952 232.808 28.624 233.309 29.488C233.811 30.352 234.061 31.328 234.061 32.416C234.061 33.504 233.811 34.4853 233.309 35.36C232.808 36.224 232.12 36.9013 231.245 37.392C230.381 37.872 229.427 38.112 228.381 38.112ZM228.381 36.528C229.117 36.528 229.773 36.3627 230.349 36.032C230.925 35.6907 231.373 35.2107 231.693 34.592C232.024 33.9627 232.189 33.2373 232.189 32.416C232.189 31.5947 232.024 30.8747 231.693 30.256C231.373 29.6373 230.925 29.1627 230.349 28.832C229.773 28.5013 229.117 28.336 228.381 28.336C227.645 28.336 226.989 28.5013 226.413 28.832C225.837 29.1627 225.384 29.6373 225.053 30.256C224.733 30.8747 224.573 31.5947 224.573 32.416C224.573 33.2373 224.733 33.9627 225.053 34.592C225.384 35.2107 225.837 35.6907 226.413 36.032C226.989 36.3627 227.645 36.528 228.381 36.528ZM235.248 32.416C235.248 31.328 235.499 30.352 236 29.488C236.512 28.624 237.2 27.952 238.064 27.472C238.939 26.9813 239.894 26.736 240.928 26.736C242.112 26.736 243.163 27.0293 244.08 27.616C245.008 28.192 245.68 29.0133 246.096 30.08H243.904C243.616 29.4933 243.216 29.056 242.704 28.768C242.192 28.48 241.6 28.336 240.928 28.336C240.192 28.336 239.536 28.5013 238.96 28.832C238.384 29.1627 237.931 29.6373 237.6 30.256C237.28 30.8747 237.12 31.5947 237.12 32.416C237.12 33.2373 237.28 33.9573 237.6 34.576C237.931 35.1947 238.384 35.6747 238.96 36.016C239.536 36.3467 240.192 36.512 240.928 36.512C241.6 36.512 242.192 36.368 242.704 36.08C243.216 35.792 243.616 35.3547 243.904 34.768H246.096C245.68 35.8347 245.008 36.656 244.08 37.232C243.163 37.808 242.112 38.096 240.928 38.096C239.883 38.096 238.928 37.856 238.064 37.376C237.2 36.8853 236.512 36.208 236 35.344C235.499 34.48 235.248 33.504 235.248 32.416ZM254.935 35.728H250.279L249.479 38H247.575L251.559 26.864H253.671L257.655 38H255.735L254.935 35.728ZM254.423 34.24L252.615 29.072L250.791 34.24H254.423ZM261.212 36.528H264.972V38H259.388V26.88H261.212V36.528ZM274.317 38.112C273.57 38.112 272.898 37.984 272.301 37.728C271.704 37.4613 271.234 37.088 270.893 36.608C270.552 36.128 270.381 35.568 270.381 34.928H272.333C272.376 35.408 272.562 35.8027 272.893 36.112C273.234 36.4213 273.709 36.576 274.317 36.576C274.946 36.576 275.437 36.4267 275.789 36.128C276.141 35.8187 276.317 35.424 276.317 34.944C276.317 34.5707 276.205 34.2667 275.981 34.032C275.768 33.7973 275.496 33.616 275.165 33.488C274.845 33.36 274.397 33.2213 273.821 33.072C273.096 32.88 272.504 32.688 272.045 32.496C271.597 32.2933 271.213 31.984 270.893 31.568C270.573 31.152 270.413 30.5973 270.413 29.904C270.413 29.264 270.573 28.704 270.893 28.224C271.213 27.744 271.661 27.376 272.237 27.12C272.813 26.864 273.48 26.736 274.237 26.736C275.314 26.736 276.194 27.008 276.877 27.552C277.57 28.0853 277.954 28.8213 278.029 29.76H276.013C275.981 29.3547 275.789 29.008 275.437 28.72C275.085 28.432 274.621 28.288 274.045 28.288C273.522 28.288 273.096 28.4213 272.765 28.688C272.434 28.9547 272.269 29.3387 272.269 29.84C272.269 30.1813 272.37 30.464 272.573 30.688C272.786 30.9013 273.053 31.072 273.373 31.2C273.693 31.328 274.13 31.4667 274.685 31.616C275.421 31.8187 276.018 32.0213 276.477 32.224C276.946 32.4267 277.341 32.7413 277.661 33.168C277.992 33.584 278.157 34.144 278.157 34.848C278.157 35.4133 278.002 35.9467 277.693 36.448C277.394 36.9493 276.952 37.3547 276.365 37.664C275.789 37.9627 275.106 38.112 274.317 38.112ZM287.493 26.88V28.368H284.533V38H282.709V28.368H279.733V26.88H287.493ZM294.413 38.112C293.378 38.112 292.423 37.872 291.549 37.392C290.685 36.9013 289.997 36.224 289.485 35.36C288.983 34.4853 288.733 33.504 288.733 32.416C288.733 31.328 288.983 30.352 289.485 29.488C289.997 28.624 290.685 27.952 291.549 27.472C292.423 26.9813 293.378 26.736 294.413 26.736C295.458 26.736 296.413 26.9813 297.277 27.472C298.151 27.952 298.839 28.624 299.341 29.488C299.842 30.352 300.093 31.328 300.093 32.416C300.093 33.504 299.842 34.4853 299.341 35.36C298.839 36.224 298.151 36.9013 297.277 37.392C296.413 37.872 295.458 38.112 294.413 38.112ZM294.413 36.528C295.149 36.528 295.805 36.3627 296.381 36.032C296.957 35.6907 297.405 35.2107 297.725 34.592C298.055 33.9627 298.221 33.2373 298.221 32.416C298.221 31.5947 298.055 30.8747 297.725 30.256C297.405 29.6373 296.957 29.1627 296.381 28.832C295.805 28.5013 295.149 28.336 294.413 28.336C293.677 28.336 293.021 28.5013 292.445 28.832C291.869 29.1627 291.415 29.6373 291.085 30.256C290.765 30.8747 290.605 31.5947 290.605 32.416C290.605 33.2373 290.765 33.9627 291.085 34.592C291.415 35.2107 291.869 35.6907 292.445 36.032C293.021 36.3627 293.677 36.528 294.413 36.528ZM307.664 38L305.104 33.552H303.712V38H301.888V26.88H305.728C306.581 26.88 307.301 27.0293 307.888 27.328C308.485 27.6267 308.928 28.0267 309.216 28.528C309.514 29.0293 309.664 29.5893 309.664 30.208C309.664 30.9333 309.45 31.5947 309.024 32.192C308.608 32.7787 307.962 33.1787 307.088 33.392L309.84 38H307.664ZM303.712 32.096H305.728C306.41 32.096 306.922 31.9253 307.264 31.584C307.616 31.2427 307.792 30.784 307.792 30.208C307.792 29.632 307.621 29.184 307.28 28.864C306.938 28.5333 306.421 28.368 305.728 28.368H303.712V32.096ZM318.701 35.728H314.045L313.245 38H311.341L315.325 26.864H317.437L321.421 38H319.501L318.701 35.728ZM318.189 34.24L316.381 29.072L314.557 34.24H318.189ZM331.201 30.08C330.913 29.5253 330.513 29.1093 330.001 28.832C329.489 28.544 328.897 28.4 328.225 28.4C327.489 28.4 326.833 28.5653 326.257 28.896C325.681 29.2267 325.228 29.696 324.897 30.304C324.577 30.912 324.417 31.616 324.417 32.416C324.417 33.216 324.577 33.9253 324.897 34.544C325.228 35.152 325.681 35.6213 326.257 35.952C326.833 36.2827 327.489 36.448 328.225 36.448C329.217 36.448 330.022 36.1707 330.641 35.616C331.26 35.0613 331.638 34.3093 331.777 33.36H327.601V31.904H333.729V33.328C333.612 34.192 333.302 34.9867 332.801 35.712C332.31 36.4373 331.665 37.0187 330.865 37.456C330.076 37.8827 329.196 38.096 328.225 38.096C327.18 38.096 326.225 37.856 325.361 37.376C324.497 36.8853 323.809 36.208 323.297 35.344C322.796 34.48 322.545 33.504 322.545 32.416C322.545 31.328 322.796 30.352 323.297 29.488C323.809 28.624 324.497 27.952 325.361 27.472C326.236 26.9813 327.19 26.736 328.225 26.736C329.409 26.736 330.46 27.0293 331.377 27.616C332.305 28.192 332.977 29.0133 333.393 30.08H331.201ZM337.352 28.352V31.616H341.192V33.104H337.352V36.512H341.672V38H335.528V26.864H341.672V28.352H337.352Z" fill="#ffecd1"/>
<rect x="197" y="2" width="2" height="45" fill="#ffecd1"/>
</svg>
