<svg width="138" height="138" viewBox="0 0 138 138" fill="none" xmlns="http://www.w3.org/2000/svg">
<path d="M73.9564 0.181968C64.0839 -0.536693 54.1723 0.878763 44.8956 4.33211C35.6189 7.78546 27.1945 13.1957 20.1951 20.1951C13.1957 27.1945 7.78546 35.6189 4.33211 44.8956C0.878763 54.1723 -0.536693 64.0839 0.181968 73.9564C2.66642 110.464 34.5502 138 71.1269 138H96.5925C100.388 138 103.494 134.894 103.494 131.099C103.494 127.303 100.388 124.197 96.5925 124.197H71.2649C45.5232 124.197 21.9209 107.496 15.5028 82.5829C5.21988 42.5557 42.4867 5.21988 82.5139 15.5718C107.496 21.9209 124.197 45.5232 124.197 71.2649V78.8563C124.197 84.3083 119.298 89.6912 113.846 89.6912C108.394 89.6912 103.494 84.3083 103.494 78.8563V70.2297C103.494 52.9076 91.2095 37.3107 74.0944 34.8953C68.649 34.0856 63.089 34.5884 57.8772 36.3619C52.6655 38.1354 47.9528 41.1283 44.1315 45.0913C40.3102 49.0544 37.491 53.8729 35.9084 59.1458C34.3259 64.4187 34.0258 69.9934 35.0333 75.4056C36.2437 81.9271 39.3095 87.9611 43.8631 92.784C48.4166 97.6068 54.2647 101.014 60.706 102.597C73.4043 105.564 85.4815 101.492 93.4179 93.4179C99.56 101.837 111.844 106.254 123.093 101.768C132.341 98.1108 138 88.656 138 78.7182V71.1959C138 34.5502 110.464 2.66642 73.9564 0.181968ZM68.9875 89.6912C57.5314 89.6912 48.2837 80.4435 48.2837 68.9875C48.2837 57.5314 57.5314 48.2837 68.9875 48.2837C80.4435 48.2837 89.6912 57.5314 89.6912 68.9875C89.6912 80.4435 80.4435 89.6912 68.9875 89.6912Z" fill="#FFCA7E"/>
</svg>
