<svg width="185" height="181" viewBox="0 0 185 181" fill="none" xmlns="http://www.w3.org/2000/svg">
<path fill-rule="evenodd" clip-rule="evenodd" d="M92.2978 0.765991C41.3973 0.765991 0.170166 41.9931 0.170166 92.8937C0.170166 133.66 26.5417 168.093 63.1625 180.3C67.7688 181.106 69.4962 178.342 69.4962 175.924C69.4962 173.736 69.3811 166.481 69.3811 158.765C46.234 163.026 40.2457 153.122 38.4031 147.94C37.3667 145.291 32.8755 137.115 28.9601 134.927C25.7356 133.2 21.1292 128.939 28.8449 128.823C36.1 128.708 41.2821 135.503 43.0095 138.267C51.301 152.201 64.5444 148.285 69.8417 145.867C70.6478 139.879 73.0662 135.848 75.7149 133.545C55.2164 131.242 33.7968 123.296 33.7968 88.057C33.7968 78.0381 37.3667 69.7466 43.2398 63.2976C42.3186 60.9945 39.0941 51.5514 44.1611 38.8838C44.1611 38.8838 51.8768 36.4655 69.4962 48.3269C76.8664 46.254 84.6973 45.2176 92.5281 45.2176C100.359 45.2176 108.19 46.254 115.56 48.3269C133.179 36.3503 140.895 38.8838 140.895 38.8838C145.962 51.5514 142.738 60.9945 141.816 63.2976C147.69 69.7466 151.26 77.9229 151.26 88.057C151.26 123.411 129.725 131.242 109.226 133.545C112.566 136.424 115.445 141.952 115.445 150.589C115.445 162.911 115.33 172.814 115.33 175.924C115.33 178.342 117.057 181.221 121.664 180.3C139.952 174.125 155.844 162.371 167.103 146.691C178.362 131.012 184.42 112.197 184.425 92.8937C184.425 41.9931 143.198 0.765991 92.2978 0.765991Z" fill="#FFCA7E"/>
</svg>
