<svg width="138" height="139" viewBox="0 0 138 139" fill="none" xmlns="http://www.w3.org/2000/svg">
<path d="M15.6818 0C11.5319 0.0297757 7.56029 1.70349 4.62577 4.65929C1.69124 7.61508 0.0295615 11.6154 0 15.7955V123.205C0 131.842 7.107 139 15.6818 139H122.318C130.893 139 138 131.842 138 123.205V15.7955C138 7.1585 130.893 0 122.318 0H15.6818ZM15.6818 12.6364H122.318C124.106 12.6364 125.455 13.9948 125.455 15.7955V123.205C125.455 125.005 124.106 126.364 122.318 126.364H15.6818C15.2674 126.373 14.8553 126.298 14.4705 126.143C14.0857 125.987 13.7362 125.755 13.4431 125.46C13.1499 125.164 12.9193 124.812 12.765 124.425C12.6107 124.037 12.536 123.622 12.5455 123.205V15.7955C12.5455 13.9948 13.8941 12.6364 15.6818 12.6364ZM34.1111 23.4973C32.6736 23.4624 31.2437 23.7174 29.9055 24.2474C28.5673 24.7773 27.3479 25.5715 26.3189 26.5832C25.29 27.5949 24.4723 28.8037 23.9141 30.1384C23.3558 31.4731 23.0682 32.9068 23.0682 34.3551C23.0682 35.8034 23.3558 37.2371 23.9141 38.5719C24.4723 39.9066 25.29 41.1153 26.3189 42.127C27.3479 43.1387 28.5673 43.9329 29.9055 44.4629C31.2437 44.9928 32.6736 45.2478 34.1111 45.2129C36.925 45.1445 39.6009 43.9706 41.567 41.9418C43.5332 39.913 44.6339 37.1903 44.6339 34.3551C44.6339 31.52 43.5332 28.7972 41.567 26.7684C39.6009 24.7397 36.925 23.5657 34.1111 23.4973V23.4973ZM90.7538 52.3209C81.765 52.3209 75.7871 57.2806 73.3156 61.994H72.9205V53.7045H55.2753V113.727H73.7046V84.1076C73.7046 76.2857 75.2476 68.7102 84.8763 68.7102C94.3606 68.7102 94.4861 77.543 94.4861 84.5057V113.727H112.909V80.7527C112.909 64.616 109.503 52.3209 90.7601 52.3209H90.7538ZM25.0909 53.7045V113.727H43.7146V53.7045H25.0909Z" fill="#FFCA7E"/>
</svg>
