<svg width="130" height="129" viewBox="0 0 130 129" fill="none" xmlns="http://www.w3.org/2000/svg">
<path d="M79.6926 14.3522C77.7922 14.3522 75.9697 13.5973 74.6259 12.2535C73.2821 10.9097 72.5272 9.08713 72.5272 7.18673C72.5272 5.28632 73.2821 3.46375 74.6259 2.11996C75.9697 0.776173 77.7922 0.0212402 79.6926 0.0212402H122.686C124.586 0.0212402 126.409 0.776173 127.752 2.11996C129.096 3.46375 129.851 5.28632 129.851 7.18673V50.1796C129.851 52.08 129.096 53.9026 127.752 55.2464C126.409 56.5902 124.586 57.3451 122.686 57.3451C120.785 57.3451 118.963 56.5902 117.619 55.2464C116.275 53.9026 115.52 52.08 115.52 50.1796V24.4842L48.9312 91.0731C47.5798 92.3783 45.7698 93.1005 43.891 93.0842C42.0122 93.0679 40.2151 92.3143 38.8865 90.9858C37.558 89.6572 36.8044 87.86 36.7881 85.9813C36.7717 84.1025 37.494 82.2925 38.7992 80.9411L105.388 14.3522H79.6926ZM0.872314 28.6832C0.872314 24.8824 2.38218 21.2372 5.06976 18.5497C7.75734 15.8621 11.4025 14.3522 15.2033 14.3522H51.0307C52.9311 14.3522 54.7537 15.1071 56.0975 16.4509C57.4413 17.7947 58.1962 19.6173 58.1962 21.5177C58.1962 23.4181 57.4413 25.2407 56.0975 26.5845C54.7537 27.9282 52.9311 28.6832 51.0307 28.6832H15.2033V114.669H101.189V78.8416C101.189 76.9412 101.944 75.1186 103.288 73.7748C104.632 72.431 106.454 71.6761 108.355 71.6761C110.255 71.6761 112.078 72.431 113.421 73.7748C114.765 75.1186 115.52 76.9412 115.52 78.8416V114.669C115.52 118.47 114.01 122.115 111.323 124.803C108.635 127.49 104.99 129 101.189 129H15.2033C11.4025 129 7.75734 127.49 5.06976 124.803C2.38218 122.115 0.872314 118.47 0.872314 114.669V28.6832Z" fill="#3C8DDA"/>
</svg>
