<svg width="17" height="12" viewBox="0 0 17 12" fill="none" xmlns="http://www.w3.org/2000/svg">
<path fill-rule="evenodd" clip-rule="evenodd" d="M0 1C0 0.447715 0.447715 0 1 0H16C16.5523 0 17 0.447715 17 1C17 1.55228 16.5523 2 16 2H1C0.447715 2 0 1.55228 0 1Z" fill="#FFCA7E"/>
<path fill-rule="evenodd" clip-rule="evenodd" d="M0 6C0 5.44772 0.447715 5 1 5H16C16.5523 5 17 5.44772 17 6C17 6.55228 16.5523 7 16 7H1C0.447715 7 0 6.55228 0 6Z" fill="#FFCA7E"/>
<path fill-rule="evenodd" clip-rule="evenodd" d="M0 11C0 10.4477 0.447715 10 1 10H16C16.5523 10 17 10.4477 17 11C17 11.5523 16.5523 12 16 12H1C0.447715 12 0 11.5523 0 11Z" fill="#FFCA7E"/>
</svg>
